G04 #@! TF.GenerationSoftware,KiCad,Pcbnew,(5.1.2)-2*
G04 #@! TF.CreationDate,2019-07-31T13:01:31-07:00*
G04 #@! TF.ProjectId,ER Valve Board,45522056-616c-4766-9520-426f6172642e,rev?*
G04 #@! TF.SameCoordinates,Original*
G04 #@! TF.FileFunction,Copper,L2,Bot*
G04 #@! TF.FilePolarity,Positive*
%FSLAX46Y46*%
G04 Gerber Fmt 4.6, Leading zero omitted, Abs format (unit mm)*
G04 Created by KiCad (PCBNEW (5.1.2)-2) date 2019-07-31 13:01:31*
%MOMM*%
%LPD*%
G04 APERTURE LIST*
%ADD10C,1.524000*%
%ADD11O,1.700000X1.700000*%
%ADD12R,1.700000X1.700000*%
%ADD13C,0.800000*%
%ADD14C,0.254000*%
G04 APERTURE END LIST*
D10*
X115570000Y-87630000D03*
X115570000Y-91440000D03*
X124460000Y-87630000D03*
X124460000Y-97790000D03*
D11*
X134620000Y-114300000D03*
X132080000Y-114300000D03*
D12*
X129540000Y-114300000D03*
X130810000Y-97790000D03*
D11*
X133350000Y-97790000D03*
X135890000Y-97790000D03*
D12*
X130810000Y-90170000D03*
D11*
X133350000Y-90170000D03*
X135890000Y-90170000D03*
D12*
X111760000Y-102870000D03*
D11*
X111760000Y-105410000D03*
D13*
X129540000Y-101600000D03*
X118110000Y-101600000D03*
X140970000Y-101600000D03*
D14*
G36*
X126873000Y-100330000D02*
G01*
X126875440Y-100354776D01*
X126882667Y-100378601D01*
X126894403Y-100400557D01*
X126910197Y-100419803D01*
X126929443Y-100435597D01*
X126951399Y-100447333D01*
X126975224Y-100454560D01*
X127000000Y-100457000D01*
X143383000Y-100457000D01*
X143383000Y-104013000D01*
X115570000Y-104013000D01*
X115545224Y-104015440D01*
X115521399Y-104022667D01*
X115499443Y-104034403D01*
X115480197Y-104050197D01*
X115464403Y-104069443D01*
X115452667Y-104091399D01*
X115445440Y-104115224D01*
X115443000Y-104140000D01*
X115443000Y-109093000D01*
X108077000Y-109093000D01*
X108077000Y-105766890D01*
X110318524Y-105766890D01*
X110363175Y-105914099D01*
X110488359Y-106176920D01*
X110662412Y-106410269D01*
X110878645Y-106605178D01*
X111128748Y-106754157D01*
X111403109Y-106851481D01*
X111633000Y-106730814D01*
X111633000Y-105537000D01*
X111887000Y-105537000D01*
X111887000Y-106730814D01*
X112116891Y-106851481D01*
X112391252Y-106754157D01*
X112641355Y-106605178D01*
X112857588Y-106410269D01*
X113031641Y-106176920D01*
X113156825Y-105914099D01*
X113201476Y-105766890D01*
X113080155Y-105537000D01*
X111887000Y-105537000D01*
X111633000Y-105537000D01*
X110439845Y-105537000D01*
X110318524Y-105766890D01*
X108077000Y-105766890D01*
X108077000Y-102020000D01*
X109761470Y-102020000D01*
X109761470Y-103720000D01*
X109783539Y-103944067D01*
X109848897Y-104159523D01*
X109955032Y-104358089D01*
X110097867Y-104532133D01*
X110271911Y-104674968D01*
X110432329Y-104760713D01*
X110363175Y-104905901D01*
X110318524Y-105053110D01*
X110439845Y-105283000D01*
X111633000Y-105283000D01*
X111633000Y-105263000D01*
X111887000Y-105263000D01*
X111887000Y-105283000D01*
X113080155Y-105283000D01*
X113201476Y-105053110D01*
X113156825Y-104905901D01*
X113087671Y-104760713D01*
X113248089Y-104674968D01*
X113422133Y-104532133D01*
X113564968Y-104358089D01*
X113671103Y-104159523D01*
X113736461Y-103944067D01*
X113758530Y-103720000D01*
X113758530Y-102020000D01*
X113736461Y-101795933D01*
X113671103Y-101580477D01*
X113564968Y-101381911D01*
X113422133Y-101207867D01*
X113248089Y-101065032D01*
X113049523Y-100958897D01*
X112834067Y-100893539D01*
X112610000Y-100871470D01*
X110910000Y-100871470D01*
X110685933Y-100893539D01*
X110470477Y-100958897D01*
X110271911Y-101065032D01*
X110097867Y-101207867D01*
X109955032Y-101381911D01*
X109848897Y-101580477D01*
X109783539Y-101795933D01*
X109761470Y-102020000D01*
X108077000Y-102020000D01*
X108077000Y-99080610D01*
X108185348Y-98755565D01*
X123674040Y-98755565D01*
X123741020Y-98995656D01*
X123990048Y-99112756D01*
X124257135Y-99179023D01*
X124532017Y-99191910D01*
X124804133Y-99150922D01*
X125063023Y-99057636D01*
X125178980Y-98995656D01*
X125245960Y-98755565D01*
X124460000Y-97969605D01*
X123674040Y-98755565D01*
X108185348Y-98755565D01*
X108483197Y-97862017D01*
X123058090Y-97862017D01*
X123099078Y-98134133D01*
X123192364Y-98393023D01*
X123254344Y-98508980D01*
X123494435Y-98575960D01*
X124280395Y-97790000D01*
X124639605Y-97790000D01*
X125425565Y-98575960D01*
X125665656Y-98508980D01*
X125782756Y-98259952D01*
X125849023Y-97992865D01*
X125861910Y-97717983D01*
X125820922Y-97445867D01*
X125727636Y-97186977D01*
X125665656Y-97071020D01*
X125425565Y-97004040D01*
X124639605Y-97790000D01*
X124280395Y-97790000D01*
X123494435Y-97004040D01*
X123254344Y-97071020D01*
X123137244Y-97320048D01*
X123070977Y-97587135D01*
X123058090Y-97862017D01*
X108483197Y-97862017D01*
X108829057Y-96824435D01*
X123674040Y-96824435D01*
X124460000Y-97610395D01*
X125245960Y-96824435D01*
X125178980Y-96584344D01*
X124929952Y-96467244D01*
X124662865Y-96400977D01*
X124387983Y-96388090D01*
X124115867Y-96429078D01*
X123856977Y-96522364D01*
X123741020Y-96584344D01*
X123674040Y-96824435D01*
X108829057Y-96824435D01*
X109340483Y-95290161D01*
X109346003Y-95265884D01*
X109347000Y-95250000D01*
X109347000Y-91252374D01*
X113665000Y-91252374D01*
X113665000Y-91627626D01*
X113738209Y-91995668D01*
X113881811Y-92342356D01*
X114090290Y-92654366D01*
X114355634Y-92919710D01*
X114667644Y-93128189D01*
X115014332Y-93271791D01*
X115382374Y-93345000D01*
X115757626Y-93345000D01*
X116125668Y-93271791D01*
X116472356Y-93128189D01*
X116784366Y-92919710D01*
X117049710Y-92654366D01*
X117258189Y-92342356D01*
X117401791Y-91995668D01*
X117475000Y-91627626D01*
X117475000Y-91252374D01*
X117401791Y-90884332D01*
X117258189Y-90537644D01*
X117049710Y-90225634D01*
X116784366Y-89960290D01*
X116472356Y-89751811D01*
X116125668Y-89608209D01*
X115757626Y-89535000D01*
X115382374Y-89535000D01*
X115014332Y-89608209D01*
X114667644Y-89751811D01*
X114355634Y-89960290D01*
X114090290Y-90225634D01*
X113881811Y-90537644D01*
X113738209Y-90884332D01*
X113665000Y-91252374D01*
X109347000Y-91252374D01*
X109347000Y-88595565D01*
X114784040Y-88595565D01*
X114851020Y-88835656D01*
X115100048Y-88952756D01*
X115367135Y-89019023D01*
X115642017Y-89031910D01*
X115914133Y-88990922D01*
X116173023Y-88897636D01*
X116288980Y-88835656D01*
X116355960Y-88595565D01*
X115570000Y-87809605D01*
X114784040Y-88595565D01*
X109347000Y-88595565D01*
X109347000Y-87702017D01*
X114168090Y-87702017D01*
X114209078Y-87974133D01*
X114302364Y-88233023D01*
X114364344Y-88348980D01*
X114604435Y-88415960D01*
X115390395Y-87630000D01*
X115749605Y-87630000D01*
X116535565Y-88415960D01*
X116775656Y-88348980D01*
X116892756Y-88099952D01*
X116959023Y-87832865D01*
X116971910Y-87557983D01*
X116954497Y-87442374D01*
X122555000Y-87442374D01*
X122555000Y-87817626D01*
X122628209Y-88185668D01*
X122771811Y-88532356D01*
X122980290Y-88844366D01*
X123245634Y-89109710D01*
X123557644Y-89318189D01*
X123904332Y-89461791D01*
X124272374Y-89535000D01*
X124647626Y-89535000D01*
X125015668Y-89461791D01*
X125362356Y-89318189D01*
X125674366Y-89109710D01*
X125939710Y-88844366D01*
X126148189Y-88532356D01*
X126291791Y-88185668D01*
X126365000Y-87817626D01*
X126365000Y-87442374D01*
X126291791Y-87074332D01*
X126148189Y-86727644D01*
X125939710Y-86415634D01*
X125674366Y-86150290D01*
X125362356Y-85941811D01*
X125015668Y-85798209D01*
X124647626Y-85725000D01*
X124272374Y-85725000D01*
X123904332Y-85798209D01*
X123557644Y-85941811D01*
X123245634Y-86150290D01*
X122980290Y-86415634D01*
X122771811Y-86727644D01*
X122628209Y-87074332D01*
X122555000Y-87442374D01*
X116954497Y-87442374D01*
X116930922Y-87285867D01*
X116837636Y-87026977D01*
X116775656Y-86911020D01*
X116535565Y-86844040D01*
X115749605Y-87630000D01*
X115390395Y-87630000D01*
X114604435Y-86844040D01*
X114364344Y-86911020D01*
X114247244Y-87160048D01*
X114180977Y-87427135D01*
X114168090Y-87702017D01*
X109347000Y-87702017D01*
X109347000Y-86664435D01*
X114784040Y-86664435D01*
X115570000Y-87450395D01*
X116355960Y-86664435D01*
X116288980Y-86424344D01*
X116039952Y-86307244D01*
X115772865Y-86240977D01*
X115497983Y-86228090D01*
X115225867Y-86269078D01*
X114966977Y-86362364D01*
X114851020Y-86424344D01*
X114784040Y-86664435D01*
X109347000Y-86664435D01*
X109347000Y-85217000D01*
X126873000Y-85217000D01*
X126873000Y-100330000D01*
X126873000Y-100330000D01*
G37*
X126873000Y-100330000D02*
X126875440Y-100354776D01*
X126882667Y-100378601D01*
X126894403Y-100400557D01*
X126910197Y-100419803D01*
X126929443Y-100435597D01*
X126951399Y-100447333D01*
X126975224Y-100454560D01*
X127000000Y-100457000D01*
X143383000Y-100457000D01*
X143383000Y-104013000D01*
X115570000Y-104013000D01*
X115545224Y-104015440D01*
X115521399Y-104022667D01*
X115499443Y-104034403D01*
X115480197Y-104050197D01*
X115464403Y-104069443D01*
X115452667Y-104091399D01*
X115445440Y-104115224D01*
X115443000Y-104140000D01*
X115443000Y-109093000D01*
X108077000Y-109093000D01*
X108077000Y-105766890D01*
X110318524Y-105766890D01*
X110363175Y-105914099D01*
X110488359Y-106176920D01*
X110662412Y-106410269D01*
X110878645Y-106605178D01*
X111128748Y-106754157D01*
X111403109Y-106851481D01*
X111633000Y-106730814D01*
X111633000Y-105537000D01*
X111887000Y-105537000D01*
X111887000Y-106730814D01*
X112116891Y-106851481D01*
X112391252Y-106754157D01*
X112641355Y-106605178D01*
X112857588Y-106410269D01*
X113031641Y-106176920D01*
X113156825Y-105914099D01*
X113201476Y-105766890D01*
X113080155Y-105537000D01*
X111887000Y-105537000D01*
X111633000Y-105537000D01*
X110439845Y-105537000D01*
X110318524Y-105766890D01*
X108077000Y-105766890D01*
X108077000Y-102020000D01*
X109761470Y-102020000D01*
X109761470Y-103720000D01*
X109783539Y-103944067D01*
X109848897Y-104159523D01*
X109955032Y-104358089D01*
X110097867Y-104532133D01*
X110271911Y-104674968D01*
X110432329Y-104760713D01*
X110363175Y-104905901D01*
X110318524Y-105053110D01*
X110439845Y-105283000D01*
X111633000Y-105283000D01*
X111633000Y-105263000D01*
X111887000Y-105263000D01*
X111887000Y-105283000D01*
X113080155Y-105283000D01*
X113201476Y-105053110D01*
X113156825Y-104905901D01*
X113087671Y-104760713D01*
X113248089Y-104674968D01*
X113422133Y-104532133D01*
X113564968Y-104358089D01*
X113671103Y-104159523D01*
X113736461Y-103944067D01*
X113758530Y-103720000D01*
X113758530Y-102020000D01*
X113736461Y-101795933D01*
X113671103Y-101580477D01*
X113564968Y-101381911D01*
X113422133Y-101207867D01*
X113248089Y-101065032D01*
X113049523Y-100958897D01*
X112834067Y-100893539D01*
X112610000Y-100871470D01*
X110910000Y-100871470D01*
X110685933Y-100893539D01*
X110470477Y-100958897D01*
X110271911Y-101065032D01*
X110097867Y-101207867D01*
X109955032Y-101381911D01*
X109848897Y-101580477D01*
X109783539Y-101795933D01*
X109761470Y-102020000D01*
X108077000Y-102020000D01*
X108077000Y-99080610D01*
X108185348Y-98755565D01*
X123674040Y-98755565D01*
X123741020Y-98995656D01*
X123990048Y-99112756D01*
X124257135Y-99179023D01*
X124532017Y-99191910D01*
X124804133Y-99150922D01*
X125063023Y-99057636D01*
X125178980Y-98995656D01*
X125245960Y-98755565D01*
X124460000Y-97969605D01*
X123674040Y-98755565D01*
X108185348Y-98755565D01*
X108483197Y-97862017D01*
X123058090Y-97862017D01*
X123099078Y-98134133D01*
X123192364Y-98393023D01*
X123254344Y-98508980D01*
X123494435Y-98575960D01*
X124280395Y-97790000D01*
X124639605Y-97790000D01*
X125425565Y-98575960D01*
X125665656Y-98508980D01*
X125782756Y-98259952D01*
X125849023Y-97992865D01*
X125861910Y-97717983D01*
X125820922Y-97445867D01*
X125727636Y-97186977D01*
X125665656Y-97071020D01*
X125425565Y-97004040D01*
X124639605Y-97790000D01*
X124280395Y-97790000D01*
X123494435Y-97004040D01*
X123254344Y-97071020D01*
X123137244Y-97320048D01*
X123070977Y-97587135D01*
X123058090Y-97862017D01*
X108483197Y-97862017D01*
X108829057Y-96824435D01*
X123674040Y-96824435D01*
X124460000Y-97610395D01*
X125245960Y-96824435D01*
X125178980Y-96584344D01*
X124929952Y-96467244D01*
X124662865Y-96400977D01*
X124387983Y-96388090D01*
X124115867Y-96429078D01*
X123856977Y-96522364D01*
X123741020Y-96584344D01*
X123674040Y-96824435D01*
X108829057Y-96824435D01*
X109340483Y-95290161D01*
X109346003Y-95265884D01*
X109347000Y-95250000D01*
X109347000Y-91252374D01*
X113665000Y-91252374D01*
X113665000Y-91627626D01*
X113738209Y-91995668D01*
X113881811Y-92342356D01*
X114090290Y-92654366D01*
X114355634Y-92919710D01*
X114667644Y-93128189D01*
X115014332Y-93271791D01*
X115382374Y-93345000D01*
X115757626Y-93345000D01*
X116125668Y-93271791D01*
X116472356Y-93128189D01*
X116784366Y-92919710D01*
X117049710Y-92654366D01*
X117258189Y-92342356D01*
X117401791Y-91995668D01*
X117475000Y-91627626D01*
X117475000Y-91252374D01*
X117401791Y-90884332D01*
X117258189Y-90537644D01*
X117049710Y-90225634D01*
X116784366Y-89960290D01*
X116472356Y-89751811D01*
X116125668Y-89608209D01*
X115757626Y-89535000D01*
X115382374Y-89535000D01*
X115014332Y-89608209D01*
X114667644Y-89751811D01*
X114355634Y-89960290D01*
X114090290Y-90225634D01*
X113881811Y-90537644D01*
X113738209Y-90884332D01*
X113665000Y-91252374D01*
X109347000Y-91252374D01*
X109347000Y-88595565D01*
X114784040Y-88595565D01*
X114851020Y-88835656D01*
X115100048Y-88952756D01*
X115367135Y-89019023D01*
X115642017Y-89031910D01*
X115914133Y-88990922D01*
X116173023Y-88897636D01*
X116288980Y-88835656D01*
X116355960Y-88595565D01*
X115570000Y-87809605D01*
X114784040Y-88595565D01*
X109347000Y-88595565D01*
X109347000Y-87702017D01*
X114168090Y-87702017D01*
X114209078Y-87974133D01*
X114302364Y-88233023D01*
X114364344Y-88348980D01*
X114604435Y-88415960D01*
X115390395Y-87630000D01*
X115749605Y-87630000D01*
X116535565Y-88415960D01*
X116775656Y-88348980D01*
X116892756Y-88099952D01*
X116959023Y-87832865D01*
X116971910Y-87557983D01*
X116954497Y-87442374D01*
X122555000Y-87442374D01*
X122555000Y-87817626D01*
X122628209Y-88185668D01*
X122771811Y-88532356D01*
X122980290Y-88844366D01*
X123245634Y-89109710D01*
X123557644Y-89318189D01*
X123904332Y-89461791D01*
X124272374Y-89535000D01*
X124647626Y-89535000D01*
X125015668Y-89461791D01*
X125362356Y-89318189D01*
X125674366Y-89109710D01*
X125939710Y-88844366D01*
X126148189Y-88532356D01*
X126291791Y-88185668D01*
X126365000Y-87817626D01*
X126365000Y-87442374D01*
X126291791Y-87074332D01*
X126148189Y-86727644D01*
X125939710Y-86415634D01*
X125674366Y-86150290D01*
X125362356Y-85941811D01*
X125015668Y-85798209D01*
X124647626Y-85725000D01*
X124272374Y-85725000D01*
X123904332Y-85798209D01*
X123557644Y-85941811D01*
X123245634Y-86150290D01*
X122980290Y-86415634D01*
X122771811Y-86727644D01*
X122628209Y-87074332D01*
X122555000Y-87442374D01*
X116954497Y-87442374D01*
X116930922Y-87285867D01*
X116837636Y-87026977D01*
X116775656Y-86911020D01*
X116535565Y-86844040D01*
X115749605Y-87630000D01*
X115390395Y-87630000D01*
X114604435Y-86844040D01*
X114364344Y-86911020D01*
X114247244Y-87160048D01*
X114180977Y-87427135D01*
X114168090Y-87702017D01*
X109347000Y-87702017D01*
X109347000Y-86664435D01*
X114784040Y-86664435D01*
X115570000Y-87450395D01*
X116355960Y-86664435D01*
X116288980Y-86424344D01*
X116039952Y-86307244D01*
X115772865Y-86240977D01*
X115497983Y-86228090D01*
X115225867Y-86269078D01*
X114966977Y-86362364D01*
X114851020Y-86424344D01*
X114784040Y-86664435D01*
X109347000Y-86664435D01*
X109347000Y-85217000D01*
X126873000Y-85217000D01*
X126873000Y-100330000D01*
M02*
