G04 #@! TF.GenerationSoftware,KiCad,Pcbnew,(5.1.2)-2*
G04 #@! TF.CreationDate,2019-07-31T13:01:31-07:00*
G04 #@! TF.ProjectId,ER Valve Board,45522056-616c-4766-9520-426f6172642e,rev?*
G04 #@! TF.SameCoordinates,Original*
G04 #@! TF.FileFunction,Copper,L1,Top*
G04 #@! TF.FilePolarity,Positive*
%FSLAX46Y46*%
G04 Gerber Fmt 4.6, Leading zero omitted, Abs format (unit mm)*
G04 Created by KiCad (PCBNEW (5.1.2)-2) date 2019-07-31 13:01:31*
%MOMM*%
%LPD*%
G04 APERTURE LIST*
%ADD10C,1.524000*%
%ADD11O,1.700000X1.700000*%
%ADD12R,1.700000X1.700000*%
%ADD13R,3.800000X2.000000*%
%ADD14R,1.500000X2.000000*%
%ADD15C,0.800000*%
%ADD16C,0.250000*%
G04 APERTURE END LIST*
D10*
X115570000Y-87630000D03*
X115570000Y-91440000D03*
X124460000Y-87630000D03*
X124460000Y-97790000D03*
D11*
X134620000Y-114300000D03*
X132080000Y-114300000D03*
D12*
X129540000Y-114300000D03*
X130810000Y-97790000D03*
D11*
X133350000Y-97790000D03*
X135890000Y-97790000D03*
D12*
X130810000Y-90170000D03*
D11*
X133350000Y-90170000D03*
X135890000Y-90170000D03*
D12*
X111760000Y-102870000D03*
D11*
X111760000Y-105410000D03*
D13*
X120650000Y-109830000D03*
D14*
X120650000Y-103530000D03*
X118350000Y-103530000D03*
X122950000Y-103530000D03*
X134380000Y-103530000D03*
X129780000Y-103530000D03*
X132080000Y-103530000D03*
D13*
X132080000Y-109830000D03*
X143510000Y-109830000D03*
D14*
X143510000Y-103530000D03*
X141210000Y-103530000D03*
X145810000Y-103530000D03*
D15*
X129540000Y-101600000D03*
X118110000Y-101600000D03*
X140970000Y-101600000D03*
D16*
X125120000Y-114300000D02*
X120650000Y-109830000D01*
X129540000Y-114300000D02*
X125120000Y-114300000D01*
X132080000Y-109830000D02*
X132080000Y-114300000D01*
X139040000Y-114300000D02*
X143510000Y-109830000D01*
X134620000Y-114300000D02*
X139040000Y-114300000D01*
X145810000Y-103530000D02*
X145810000Y-98030000D01*
X145570000Y-97790000D02*
X135890000Y-97790000D01*
X145810000Y-98030000D02*
X145570000Y-97790000D01*
X134380000Y-103530000D02*
X134380000Y-101360000D01*
X133350000Y-100330000D02*
X133350000Y-97790000D01*
X134380000Y-101360000D02*
X133350000Y-100330000D01*
X122950000Y-103530000D02*
X125070000Y-103530000D01*
X125070000Y-103530000D02*
X128270000Y-100330000D01*
X128270000Y-100330000D02*
X130810000Y-97790000D01*
X130810000Y-89070000D02*
X130810000Y-90170000D01*
X129370000Y-87630000D02*
X130810000Y-89070000D01*
X124460000Y-87630000D02*
X129370000Y-87630000D01*
X130810000Y-90170000D02*
X130810000Y-92710000D01*
X130810000Y-92710000D02*
X133350000Y-92710000D01*
X133350000Y-92710000D02*
X133350000Y-90170000D01*
X133350000Y-90170000D02*
X133350000Y-87630000D01*
X133350000Y-87630000D02*
X135890000Y-87630000D01*
X135890000Y-87630000D02*
X135890000Y-90170000D01*
X111760000Y-102870000D02*
X111760000Y-93980000D01*
X113030000Y-93980000D02*
X115570000Y-91440000D01*
X111760000Y-93980000D02*
X113030000Y-93980000D01*
X141210000Y-103530000D02*
X141210000Y-103110000D01*
X141210000Y-101840000D02*
X140970000Y-101600000D01*
X141210000Y-103530000D02*
X141210000Y-101840000D01*
X129780000Y-101840000D02*
X129540000Y-101600000D01*
X129780000Y-103530000D02*
X129780000Y-101840000D01*
X118350000Y-101840000D02*
X118110000Y-101600000D01*
X118350000Y-103530000D02*
X118350000Y-101840000D01*
M02*
