G04 #@! TF.GenerationSoftware,KiCad,Pcbnew,(5.1.2)-2*
G04 #@! TF.CreationDate,2019-07-31T13:01:31-07:00*
G04 #@! TF.ProjectId,ER Valve Board,45522056-616c-4766-9520-426f6172642e,rev?*
G04 #@! TF.SameCoordinates,Original*
G04 #@! TF.FileFunction,Legend,Top*
G04 #@! TF.FilePolarity,Positive*
%FSLAX46Y46*%
G04 Gerber Fmt 4.6, Leading zero omitted, Abs format (unit mm)*
G04 Created by KiCad (PCBNEW (5.1.2)-2) date 2019-07-31 13:01:31*
%MOMM*%
%LPD*%
G04 APERTURE LIST*
%ADD10C,0.120000*%
%ADD11C,0.150000*%
G04 APERTURE END LIST*
D10*
X113030000Y-87630000D02*
G75*
G02X114300000Y-86360000I1270000J0D01*
G01*
X124460000Y-86360000D02*
G75*
G02X125730000Y-87630000I0J-1270000D01*
G01*
X125730000Y-97790000D02*
G75*
G02X124460000Y-99060000I-1270000J0D01*
G01*
X114300000Y-99060000D02*
G75*
G02X113030000Y-97790000I0J1270000D01*
G01*
X113030000Y-87630000D02*
X113030000Y-97790000D01*
X114300000Y-86360000D02*
X124460000Y-86360000D01*
X125730000Y-87630000D02*
X125730000Y-97790000D01*
X124460000Y-99060000D02*
X114300000Y-99060000D01*
X128210000Y-115630000D02*
X128210000Y-114300000D01*
X129540000Y-115630000D02*
X128210000Y-115630000D01*
X130810000Y-115630000D02*
X130810000Y-112970000D01*
X130810000Y-112970000D02*
X135950000Y-112970000D01*
X130810000Y-115630000D02*
X135950000Y-115630000D01*
X135950000Y-115630000D02*
X135950000Y-112970000D01*
X137220000Y-99120000D02*
X137220000Y-96460000D01*
X132080000Y-99120000D02*
X137220000Y-99120000D01*
X132080000Y-96460000D02*
X137220000Y-96460000D01*
X132080000Y-99120000D02*
X132080000Y-96460000D01*
X130810000Y-99120000D02*
X129480000Y-99120000D01*
X129480000Y-99120000D02*
X129480000Y-97790000D01*
X137220000Y-91500000D02*
X137220000Y-88840000D01*
X132080000Y-91500000D02*
X137220000Y-91500000D01*
X132080000Y-88840000D02*
X137220000Y-88840000D01*
X132080000Y-91500000D02*
X132080000Y-88840000D01*
X130810000Y-91500000D02*
X129480000Y-91500000D01*
X129480000Y-91500000D02*
X129480000Y-90170000D01*
X110430000Y-106740000D02*
X113090000Y-106740000D01*
X110430000Y-104140000D02*
X110430000Y-106740000D01*
X113090000Y-104140000D02*
X113090000Y-106740000D01*
X110430000Y-104140000D02*
X113090000Y-104140000D01*
X110430000Y-102870000D02*
X110430000Y-101540000D01*
X110430000Y-101540000D02*
X111760000Y-101540000D01*
X117240000Y-108590000D02*
X118500000Y-108590000D01*
X124060000Y-108590000D02*
X122800000Y-108590000D01*
X117240000Y-104830000D02*
X117240000Y-108590000D01*
X124060000Y-102580000D02*
X124060000Y-108590000D01*
X135490000Y-102580000D02*
X135490000Y-108590000D01*
X128670000Y-104830000D02*
X128670000Y-108590000D01*
X135490000Y-108590000D02*
X134230000Y-108590000D01*
X128670000Y-108590000D02*
X129930000Y-108590000D01*
X140100000Y-108590000D02*
X141360000Y-108590000D01*
X146920000Y-108590000D02*
X145660000Y-108590000D01*
X140100000Y-104830000D02*
X140100000Y-108590000D01*
X146920000Y-102580000D02*
X146920000Y-108590000D01*
D11*
X118618095Y-93432380D02*
X118618095Y-94241904D01*
X118665714Y-94337142D01*
X118713333Y-94384761D01*
X118808571Y-94432380D01*
X118999047Y-94432380D01*
X119094285Y-94384761D01*
X119141904Y-94337142D01*
X119189523Y-94241904D01*
X119189523Y-93432380D01*
X120094285Y-93765714D02*
X120094285Y-94432380D01*
X119856190Y-93384761D02*
X119618095Y-94099047D01*
X120237142Y-94099047D01*
X126662380Y-114633333D02*
X127376666Y-114633333D01*
X127519523Y-114680952D01*
X127614761Y-114776190D01*
X127662380Y-114919047D01*
X127662380Y-115014285D01*
X127662380Y-113633333D02*
X127662380Y-114204761D01*
X127662380Y-113919047D02*
X126662380Y-113919047D01*
X126805238Y-114014285D01*
X126900476Y-114109523D01*
X126948095Y-114204761D01*
X127932380Y-98123333D02*
X128646666Y-98123333D01*
X128789523Y-98170952D01*
X128884761Y-98266190D01*
X128932380Y-98409047D01*
X128932380Y-98504285D01*
X128027619Y-97694761D02*
X127980000Y-97647142D01*
X127932380Y-97551904D01*
X127932380Y-97313809D01*
X127980000Y-97218571D01*
X128027619Y-97170952D01*
X128122857Y-97123333D01*
X128218095Y-97123333D01*
X128360952Y-97170952D01*
X128932380Y-97742380D01*
X128932380Y-97123333D01*
X127932380Y-90503333D02*
X128646666Y-90503333D01*
X128789523Y-90550952D01*
X128884761Y-90646190D01*
X128932380Y-90789047D01*
X128932380Y-90884285D01*
X127932380Y-90122380D02*
X127932380Y-89503333D01*
X128313333Y-89836666D01*
X128313333Y-89693809D01*
X128360952Y-89598571D01*
X128408571Y-89550952D01*
X128503809Y-89503333D01*
X128741904Y-89503333D01*
X128837142Y-89550952D01*
X128884761Y-89598571D01*
X128932380Y-89693809D01*
X128932380Y-89979523D01*
X128884761Y-90074761D01*
X128837142Y-90122380D01*
X111426666Y-99992380D02*
X111426666Y-100706666D01*
X111379047Y-100849523D01*
X111283809Y-100944761D01*
X111140952Y-100992380D01*
X111045714Y-100992380D01*
X112331428Y-100325714D02*
X112331428Y-100992380D01*
X112093333Y-99944761D02*
X111855238Y-100659047D01*
X112474285Y-100659047D01*
X124602380Y-107441904D02*
X125411904Y-107441904D01*
X125507142Y-107394285D01*
X125554761Y-107346666D01*
X125602380Y-107251428D01*
X125602380Y-107060952D01*
X125554761Y-106965714D01*
X125507142Y-106918095D01*
X125411904Y-106870476D01*
X124602380Y-106870476D01*
X125602380Y-105870476D02*
X125602380Y-106441904D01*
X125602380Y-106156190D02*
X124602380Y-106156190D01*
X124745238Y-106251428D01*
X124840476Y-106346666D01*
X124888095Y-106441904D01*
X136032380Y-107441904D02*
X136841904Y-107441904D01*
X136937142Y-107394285D01*
X136984761Y-107346666D01*
X137032380Y-107251428D01*
X137032380Y-107060952D01*
X136984761Y-106965714D01*
X136937142Y-106918095D01*
X136841904Y-106870476D01*
X136032380Y-106870476D01*
X136127619Y-106441904D02*
X136080000Y-106394285D01*
X136032380Y-106299047D01*
X136032380Y-106060952D01*
X136080000Y-105965714D01*
X136127619Y-105918095D01*
X136222857Y-105870476D01*
X136318095Y-105870476D01*
X136460952Y-105918095D01*
X137032380Y-106489523D01*
X137032380Y-105870476D01*
X147462380Y-107441904D02*
X148271904Y-107441904D01*
X148367142Y-107394285D01*
X148414761Y-107346666D01*
X148462380Y-107251428D01*
X148462380Y-107060952D01*
X148414761Y-106965714D01*
X148367142Y-106918095D01*
X148271904Y-106870476D01*
X147462380Y-106870476D01*
X147462380Y-106489523D02*
X147462380Y-105870476D01*
X147843333Y-106203809D01*
X147843333Y-106060952D01*
X147890952Y-105965714D01*
X147938571Y-105918095D01*
X148033809Y-105870476D01*
X148271904Y-105870476D01*
X148367142Y-105918095D01*
X148414761Y-105965714D01*
X148462380Y-106060952D01*
X148462380Y-106346666D01*
X148414761Y-106441904D01*
X148367142Y-106489523D01*
M02*
